#!OML:ASF F:\VICON\USERDATA\INSTALL\rory3\rory3.ASF
:FULLY-SPECIFIED
:DEGREES
237
root -0.31833 15.2892 -10.3723 12.8617 2.96035 4.46208
lowerback 30.0159 -1.45322 -1.45209
upperback 2.43483 -2.24471 0.609044
thorax -12.9836 -0.910853 2.29874
lowerneck -16.8581 -2.14715 -6.67236
upperneck -26.5977 -0.965939 6.72778
head -5.42415 -0.193993 3.33965
rclavicle 5.56597e-015 1.11319e-014
rhumerus 28.5867 3.81503 -52.2566
rradius 88.7979
rwrist 4.75781
rhand -47.7936 2.85757
rfingers 7.12502
rthumb -20.47 -26.0834
lclavicle 5.56597e-015 1.11319e-014
lhumerus 22.2125 -6.90171 52.2882
lradius 97.3677
lwrist 23.1755
lhand -29.4967 22.707
lfingers 7.12502
lthumb -2.83138 52.668
rfemur -41.1957 -2.90634 13.9642
rtibia 88.3258
rfoot -36.1646 -16.2635
rtoes -27.3578
lfemur -40.8738 6.83951 -22.9353
ltibia 83.2502
lfoot -34.0379 -9.43772
ltoes -12.678
238
root -0.325287 15.5105 -10.1182 11.7057 2.81621 4.30543
lowerback 29.8681 -1.36257 -1.4266
upperback 2.42269 -2.1032 0.730338
thorax -12.9349 -0.847731 2.35862
lowerneck -16.3435 -2.07 -6.77094
upperneck -26.9511 -0.889401 6.62023
head -5.62007 -0.148863 3.33249
rclavicle 1.15295e-014 1.19271e-015
rhumerus 30.9529 2.43368 -50.2282
rradius 89.5604
rwrist 5.29216
rhand -48.7062 2.09348
rfingers 7.12502
rthumb -21.3468 -26.7507
lclavicle 1.15295e-014 1.19271e-015
lhumerus 23.7087 -4.33468 50.4478
lradius 99.1633
lwrist 23.3508
lhand -29.4848 23.0149
lfingers 7.12502
lthumb -2.81995 52.976
rfemur -37.5996 -2.28605 13.9767
rtibia 85.6053
rfoot -35.1602 -15.6148
rtoes -27.2307
lfemur -37.3954 7.35888 -22.2862
ltibia 80.5735
lfoot -32.3503 -11.2365
ltoes -8.95293
239
root -0.331615 15.7268 -9.85045 10.8548 2.65067 4.27667
lowerback 29.1905 -1.246 -1.55992
upperback 2.73501 -1.97274 0.805437
thorax -13.0371 -0.764056 2.60705
lowerneck -15.9744 -2.06094 -6.98302
upperneck -27.1633 -0.884502 6.55404
head -5.74391 -0.12853 3.3541
rclavicle -6.36111e-015 -7.95139e-015
rhumerus 33.3754 1.27991 -47.9881
rradius 90.2336
rwrist 5.39001
rhand -50.223 2.19744
rfingers 7.12502
rthumb -22.8031 -26.4747
lclavicle -6.36111e-015 -7.95139e-015
lhumerus 25.2174 -1.82058 48.7976
lradius 100.384
lwrist 23.0236
lhand -29.6637 23.6433
lfingers 7.12502
lthumb -2.99267 53.602
rfemur -34.3581 -1.76174 13.8755
rtibia 82.8619
rfoot -33.9772 -14.8728
rtoes -27.0976
lfemur -34.0017 7.98196 -21.901
ltibia 77.6762
lfoot -30.9507 -11.6899
ltoes -9.09858
240
root -0.334064 15.9464 -9.57998 10.2948 2.44422 4.41599
lowerback 28.3359 -1.14961 -1.81919
upperback 2.5314 -1.90808 0.923785
thorax -12.8172 -0.722573 2.84438
lowerneck -15.9244 -2.0766 -7.09818
upperneck -26.9676 -0.941001 6.36626
head -5.68622 -0.139813 3.30734
rclavicle -6.95746e-015 9.54166e-015
rhumerus 35.6977 0.489625 -45.6831
rradius 90.4658
rwrist 5.04735
rhand -49.9292 1.86717
rfingers 7.12502
rthumb -22.5211 -26.8394
lclavicle -6.95746e-015 9.54166e-015
lhumerus 26.1458 0.620028 47.298
lradius 101.318
lwrist 22.3417
lhand -29.8809 23.7952
lfingers 7.12502
lthumb -3.20245 53.7509
rfemur -31.4994 -1.38353 13.5843
rtibia 80.0891
rfoot -32.4371 -14.1652
rtoes -27.1497
lfemur -30.8241 8.63892 -21.7857
ltibia 74.5867
lfoot -29.4269 -11.7541
ltoes -10.3435
241
root -0.333204 16.1826 -9.29749 9.89832 2.27562 4.70517
lowerback 27.279 -1.11802 -2.08174
upperback 2.24536 -1.93216 0.964632
thorax -12.5792 -0.723807 3.02216
lowerneck -16.0744 -2.10291 -7.05432
upperneck -26.4169 -1.06182 5.97551
head -5.48385 -0.188126 3.1571
rclavicle -2.42517e-014 1.43125e-014
rhumerus 37.8595 -0.0135414 -43.3456
rradius 89.8722
rwrist 4.78897
rhand -49.8244 3.21886
rfingers 7.12502
rthumb -22.4205 -25.4999
lclavicle -2.42517e-014 1.43125e-014
lhumerus 26.5414 2.78317 45.7607
lradius 102.027
lwrist 21.6456
lhand -30.0942 23.7238
lfingers 7.12502
lthumb -3.4084 53.6763
rfemur -28.7646 -1.18304 13.1293
rtibia 77.2018
rfoot -30.6614 -13.5354
rtoes -27.6337
lfemur -27.7831 9.15987 -21.7871
ltibia 71.3079
lfoot -27.4382 -12.0978
ltoes -10.8643
242
root -0.326784 16.4129 -9.00079 9.57113 2.26406 5.01281
lowerback 25.9467 -1.19306 -2.17649
upperback 1.93204 -2.04083 0.967721
thorax -12.2189 -0.777622 3.07864
lowerneck -16.2306 -2.15107 -7.10114
upperneck -25.7689 -1.17189 5.73853
head -5.24703 -0.231758 3.07203
rclavicle -3.65764e-014 3.18055e-015
rhumerus 39.8582 -0.289723 -40.9859
rradius 88.492
rwrist 5.42217
rhand -54.6808 9.87185
rfingers 7.12502
rthumb -27.0748 -18.2069
lclavicle -3.65764e-014 3.18055e-015
lhumerus 26.9402 4.54649 44.1731
lradius 102.331
lwrist 20.7823
lhand -30.4184 23.8764
lfingers 7.12502
lthumb -3.72153 53.8237
rfemur -26.0394 -1.12542 12.6691
rtibia 74.227
rfoot -28.7942 -12.7805
rtoes -28.0392
lfemur -24.761 9.57028 -21.7691
ltibia 67.919
lfoot -25.3134 -12.4687
ltoes -12.0819
243
root -0.32001 16.6565 -8.68382 9.29122 2.18079 5.121
lowerback 24.2853 -1.29037 -2.1012
upperback 1.62245 -2.12091 0.999488
thorax -11.6716 -0.832575 3.04296
lowerneck -16.172 -2.17102 -7.34583
upperneck -25.2185 -1.18145 5.78948
head -5.07253 -0.223919 3.11971
rclavicle 1.94809e-014 -3.97569e-015
rhumerus 41.7153 -0.243742 -38.7959
rradius 86.4639
rwrist 7.15154
rhand -53.9096 9.99639
rfingers 7.12502
rthumb -26.3367 -18.195
lclavicle 1.94809e-014 -3.97569e-015
lhumerus 27.0634 5.90991 42.4724
lradius 102.383
lwrist 19.7156
lhand -30.6958 24.1099
lfingers 7.12502
lthumb -3.98943 54.0523
rfemur -23.277 -0.8929 12.4648
rtibia 71.0248
rfoot -26.6164 -12.1368
rtoes -28.3516
lfemur -21.6757 10.0346 -21.4838
ltibia 64.311
lfoot -22.768 -12.9947
ltoes -12.962
